<svg width="31" height="24" viewBox="0 0 131 24" fill="none" xmlns="http://www.w3.org/2000/svg">
<path d="M28.5488 11.6076C28.5488 10.7596 28.6988 9.92478 28.9989 9.10296C29.3119 8.2681 29.762 7.52455 30.349 6.87231C30.936 6.22007 31.6535 5.69176 32.5014 5.28737C33.3493 4.88298 34.3146 4.68079 35.3973 4.68079C36.6757 4.68079 37.778 4.96125 38.7042 5.52217C39.6434 6.0831 40.3413 6.81361 40.7979 7.7137L38.7237 9.1421C38.5411 8.75075 38.3194 8.42463 38.0585 8.16374C37.7976 7.8898 37.5171 7.67456 37.2171 7.51802C36.917 7.36149 36.604 7.25061 36.2779 7.18538C35.9517 7.10711 35.6321 7.06798 35.3191 7.06798C34.6407 7.06798 34.0472 7.20495 33.5385 7.47889C33.0428 7.75283 32.6253 8.11156 32.2862 8.55508C31.96 8.98556 31.7122 9.48126 31.5426 10.0422C31.373 10.5901 31.2882 11.1379 31.2882 11.6858C31.2882 12.2989 31.3861 12.8925 31.5817 13.4664C31.7774 14.0274 32.0513 14.5231 32.4036 14.9535C32.7688 15.384 33.1993 15.7297 33.695 15.9906C34.2037 16.2515 34.7581 16.3819 35.3582 16.3819C35.6713 16.3819 35.9974 16.3428 36.3366 16.2645C36.6757 16.1863 36.9953 16.0623 37.2953 15.8928C37.6084 15.7232 37.8954 15.5079 38.1563 15.247C38.4172 14.9731 38.6259 14.647 38.7824 14.2687L40.9935 15.5406C40.7718 16.0623 40.4522 16.5254 40.0347 16.9298C39.6304 17.3212 39.1673 17.6538 38.6455 17.9277C38.1367 18.2017 37.5889 18.4104 37.0018 18.5539C36.4148 18.6974 35.8409 18.7691 35.2799 18.7691C34.2885 18.7691 33.3819 18.5604 32.5601 18.143C31.7383 17.7256 31.0273 17.1842 30.4273 16.5189C29.8403 15.8406 29.3772 15.0775 29.038 14.2296C28.7119 13.3686 28.5488 12.4946 28.5488 11.6076Z" fill="black"/>
<path d="M47.2853 18.8474C46.4504 18.8474 45.7004 18.7039 45.0351 18.4169C44.3698 18.1299 43.8023 17.7451 43.3327 17.2625C42.8762 16.7668 42.524 16.1993 42.2761 15.5601C42.0282 14.9209 41.9043 14.2491 41.9043 13.5447C41.9043 12.8272 42.0282 12.1489 42.2761 11.5097C42.524 10.8705 42.8762 10.3096 43.3327 9.82695C43.8023 9.33125 44.3698 8.9399 45.0351 8.65292C45.7004 8.36593 46.4504 8.22244 47.2853 8.22244C48.1202 8.22244 48.8637 8.36593 49.5159 8.65292C50.1812 8.9399 50.7422 9.33125 51.1987 9.82695C51.6683 10.3096 52.0271 10.8705 52.2749 11.5097C52.5228 12.1489 52.6467 12.8272 52.6467 13.5447C52.6467 14.2491 52.5228 14.9209 52.2749 15.5601C52.0271 16.1993 51.6749 16.7668 51.2183 17.2625C50.7617 17.7451 50.2008 18.1299 49.5355 18.4169C48.8702 18.7039 48.1202 18.8474 47.2853 18.8474ZM44.6046 13.5447C44.6046 14.0013 44.6698 14.4187 44.8003 14.797C44.9438 15.1623 45.1329 15.4819 45.3677 15.7558C45.6156 16.0297 45.9025 16.245 46.2287 16.4015C46.5548 16.545 46.907 16.6167 47.2853 16.6167C47.6636 16.6167 48.0158 16.545 48.3419 16.4015C48.668 16.245 48.9485 16.0297 49.1833 15.7558C49.4312 15.4819 49.6203 15.1557 49.7508 14.7774C49.8942 14.3991 49.966 13.9817 49.966 13.5251C49.966 13.0816 49.8942 12.6707 49.7508 12.2924C49.6203 11.9141 49.4312 11.588 49.1833 11.3141C48.9485 11.0401 48.668 10.8314 48.3419 10.6879C48.0158 10.5314 47.6636 10.4531 47.2853 10.4531C46.907 10.4531 46.5548 10.5314 46.2287 10.6879C45.9025 10.8444 45.6156 11.0597 45.3677 11.3336C45.1329 11.6076 44.9438 11.9337 44.8003 12.312C44.6698 12.6903 44.6046 13.1012 44.6046 13.5447Z" fill="black"/>
<path d="M70.3441 18.6517H67.7221V12.899C67.7221 12.0772 67.5786 11.4771 67.2916 11.0988C67.0177 10.7205 66.6329 10.5314 66.1372 10.5314C65.6154 10.5314 65.1262 10.7336 64.6696 11.1379C64.2131 11.5293 63.8869 12.0446 63.6913 12.6838V18.6517H61.0693V12.899C61.0693 12.0772 60.9258 11.4771 60.6388 11.0988C60.3649 10.7205 59.98 10.5314 59.4843 10.5314C58.9756 10.5314 58.4864 10.727 58.0168 11.1184C57.5602 11.5097 57.2341 12.025 57.0384 12.6642V18.6517H54.4164V8.39854H56.7841V10.2966C57.1624 9.63128 57.6776 9.12253 58.3299 8.77032C58.9952 8.40507 59.7518 8.22244 60.5997 8.22244C61.4606 8.22244 62.1259 8.43116 62.5955 8.84859C63.0651 9.26602 63.3652 9.78129 63.4956 10.3944C63.913 9.68998 64.4413 9.15514 65.0805 8.78989C65.7197 8.41159 66.4502 8.22244 67.2721 8.22244C67.8982 8.22244 68.4135 8.33984 68.8179 8.57465C69.2223 8.80946 69.5353 9.11601 69.7571 9.49431C69.9789 9.8726 70.1289 10.3031 70.2071 10.7857C70.2984 11.2684 70.3441 11.7576 70.3441 12.2533V18.6517Z" fill="black"/>
<path d="M88.5545 18.6517H85.9325V12.899C85.9325 12.0772 85.7891 11.4771 85.5021 11.0988C85.2281 10.7205 84.8433 10.5314 84.3476 10.5314C83.8258 10.5314 83.3366 10.7336 82.8801 11.1379C82.4235 11.5293 82.0974 12.0446 81.9017 12.6838V18.6517H79.2797V12.899C79.2797 12.0772 79.1362 11.4771 78.8492 11.0988C78.5753 10.7205 78.1905 10.5314 77.6948 10.5314C77.186 10.5314 76.6969 10.727 76.2272 11.1184C75.7707 11.5097 75.4446 12.025 75.2489 12.6642V18.6517H72.6269V8.39854H74.9945V10.2966C75.3728 9.63128 75.8881 9.12253 76.5403 8.77032C77.2056 8.40507 77.9622 8.22244 78.8101 8.22244C79.6711 8.22244 80.3363 8.43116 80.806 8.84859C81.2756 9.26602 81.5756 9.78129 81.706 10.3944C82.1235 9.68998 82.6518 9.15514 83.291 8.78989C83.9302 8.41159 84.6607 8.22244 85.4825 8.22244C86.1087 8.22244 86.6239 8.33984 87.0283 8.57465C87.4327 8.80946 87.7458 9.11601 87.9675 9.49431C88.1893 9.8726 88.3393 10.3031 88.4176 10.7857C88.5089 11.2684 88.5545 11.7576 88.5545 12.2533V18.6517Z" fill="black"/>
<path d="M95.5921 18.8474C94.7703 18.8474 94.0268 18.7104 93.3615 18.4365C92.6962 18.1495 92.1288 17.7647 91.6591 17.282C91.1895 16.7994 90.8243 16.2385 90.5634 15.5993C90.3155 14.9601 90.1916 14.2883 90.1916 13.5838C90.1916 12.8533 90.3155 12.1685 90.5634 11.5293C90.8112 10.8771 91.17 10.3096 91.6396 9.82695C92.1092 9.33125 92.6766 8.9399 93.3419 8.65292C94.0202 8.36593 94.7768 8.22244 95.6117 8.22244C96.4466 8.22244 97.1901 8.36593 97.8424 8.65292C98.5077 8.9399 99.0686 9.32472 99.5251 9.80738C99.9948 10.29 100.347 10.851 100.582 11.4902C100.83 12.1293 100.954 12.7946 100.954 13.486C100.954 13.6556 100.947 13.8186 100.934 13.9752C100.934 14.1317 100.921 14.2622 100.895 14.3665H92.9701C93.0093 14.7709 93.1071 15.1296 93.2637 15.4427C93.4202 15.7558 93.6224 16.0232 93.8702 16.245C94.1181 16.4667 94.3985 16.6363 94.7116 16.7537C95.0247 16.8711 95.3508 16.9298 95.69 16.9298C96.2118 16.9298 96.701 16.8059 97.1575 16.558C97.6271 16.2972 97.9467 15.958 98.1163 15.5406L100.367 16.1667C99.9882 16.9494 99.3817 17.5951 98.5468 18.1039C97.725 18.5996 96.7401 18.8474 95.5921 18.8474ZM98.2533 12.6642C98.1881 11.8945 97.9011 11.2814 97.3923 10.8249C96.8966 10.3553 96.29 10.1205 95.5726 10.1205C95.2204 10.1205 94.8877 10.1857 94.5747 10.3161C94.2746 10.4335 94.0072 10.6031 93.7724 10.8249C93.5376 11.0466 93.3419 11.3141 93.1854 11.6271C93.0419 11.9402 92.9571 12.2859 92.931 12.6642H98.2533Z" fill="black"/>
<path d="M108.656 10.6683C107.86 10.6814 107.149 10.8379 106.523 11.1379C105.897 11.4249 105.447 11.8619 105.173 12.4489V18.6517H102.551V8.39854H104.958V10.5901C105.14 10.2379 105.355 9.92478 105.603 9.65084C105.851 9.36386 106.119 9.11601 106.406 8.90729C106.693 8.69858 106.98 8.54204 107.267 8.43768C107.567 8.32028 107.854 8.26158 108.128 8.26158C108.271 8.26158 108.375 8.26158 108.441 8.26158C108.519 8.26158 108.591 8.2681 108.656 8.28114V10.6683Z" fill="black"/>
<path d="M108.956 13.5251C108.956 12.8077 109.08 12.1293 109.328 11.4902C109.576 10.851 109.935 10.29 110.404 9.80738C110.874 9.32472 111.441 8.9399 112.107 8.65292C112.772 8.36593 113.522 8.22244 114.357 8.22244C115.479 8.22244 116.431 8.46377 117.214 8.94643C118.009 9.42908 118.603 10.0618 118.994 10.8444L116.431 11.6271C116.209 11.2488 115.916 10.9618 115.55 10.7662C115.185 10.5575 114.781 10.4531 114.337 10.4531C113.959 10.4531 113.607 10.5314 113.281 10.6879C112.954 10.8314 112.667 11.0401 112.42 11.3141C112.185 11.5749 111.996 11.8945 111.852 12.2728C111.722 12.6511 111.656 13.0686 111.656 13.5251C111.656 13.9817 111.728 14.3991 111.872 14.7774C112.015 15.1557 112.204 15.4819 112.439 15.7558C112.687 16.0297 112.974 16.245 113.3 16.4015C113.626 16.545 113.972 16.6167 114.337 16.6167C114.807 16.6167 115.237 16.4993 115.629 16.2645C116.033 16.0297 116.313 15.7427 116.47 15.4036L119.033 16.1863C118.681 16.969 118.101 17.6082 117.292 18.1039C116.483 18.5996 115.511 18.8474 114.376 18.8474C113.541 18.8474 112.791 18.7039 112.126 18.4169C111.461 18.1299 110.893 17.7451 110.424 17.2625C109.954 16.7668 109.589 16.1993 109.328 15.5601C109.08 14.9079 108.956 14.2296 108.956 13.5251Z" fill="black"/>
<path d="M125.306 18.8474C124.484 18.8474 123.741 18.7104 123.075 18.4365C122.41 18.1495 121.843 17.7647 121.373 17.282C120.903 16.7994 120.538 16.2385 120.277 15.5993C120.029 14.9601 119.905 14.2883 119.905 13.5838C119.905 12.8533 120.029 12.1685 120.277 11.5293C120.525 10.8771 120.884 10.3096 121.353 9.82695C121.823 9.33125 122.39 8.9399 123.056 8.65292C123.734 8.36593 124.491 8.22244 125.326 8.22244C126.16 8.22244 126.904 8.36593 127.556 8.65292C128.221 8.9399 128.782 9.32472 129.239 9.80738C129.709 10.29 130.061 10.851 130.296 11.4902C130.543 12.1293 130.667 12.7946 130.667 13.486C130.667 13.6556 130.661 13.8186 130.648 13.9752C130.648 14.1317 130.635 14.2622 130.609 14.3665H122.684C122.723 14.7709 122.821 15.1296 122.977 15.4427C123.134 15.7558 123.336 16.0232 123.584 16.245C123.832 16.4667 124.112 16.6363 124.425 16.7537C124.738 16.8711 125.065 16.9298 125.404 16.9298C125.926 16.9298 126.415 16.8059 126.871 16.558C127.341 16.2972 127.661 15.958 127.83 15.5406L130.08 16.1667C129.702 16.9494 129.095 17.5951 128.261 18.1039C127.439 18.5996 126.454 18.8474 125.306 18.8474ZM127.967 12.6642C127.902 11.8945 127.615 11.2814 127.106 10.8249C126.61 10.3553 126.004 10.1205 125.286 10.1205C124.934 10.1205 124.602 10.1857 124.288 10.3161C123.988 10.4335 123.721 10.6031 123.486 10.8249C123.251 11.0466 123.056 11.3141 122.899 11.6271C122.756 11.9402 122.671 12.2859 122.645 12.6642H127.967Z" fill="black"/>
<rect x="0.33252" y="24" width="23.9998" height="23.9998" rx="6" transform="rotate(-90 0.33252 24)" fill="#0500FF"/>
<path d="M5.97852 11.8823C5.97852 11.0326 6.12317 10.196 6.41247 9.3725C6.71436 8.53591 7.14832 7.79081 7.71435 7.13722C8.28039 6.48364 8.9722 5.95423 9.78981 5.549C10.6074 5.14378 11.5382 4.94116 12.5822 4.94116C13.8149 4.94116 14.8778 5.22221 15.7709 5.78429C16.6766 6.34638 17.3495 7.0784 17.7897 7.98036L15.7898 9.41172C15.6137 9.01956 15.3998 8.69277 15.1483 8.43133C14.8967 8.15683 14.6263 7.94114 14.3369 7.78428C14.0476 7.62742 13.7458 7.51631 13.4313 7.45095C13.1168 7.37252 12.8087 7.3333 12.5068 7.3333C11.8527 7.3333 11.2804 7.47056 10.7898 7.74506C10.3118 8.01957 9.9093 8.37905 9.58226 8.82349C9.2678 9.25486 9.02881 9.75159 8.86529 10.3137C8.70177 10.8627 8.62001 11.4117 8.62001 11.9607C8.62001 12.5751 8.71434 13.1699 8.90302 13.745C9.0917 14.3071 9.35585 14.8038 9.69547 15.2352C10.0477 15.6666 10.4628 16.013 10.9407 16.2744C11.4313 16.5359 11.9659 16.6666 12.5445 16.6666C12.8464 16.6666 13.1609 16.6274 13.4879 16.5489C13.8149 16.4705 14.1231 16.3463 14.4124 16.1764C14.7143 16.0064 14.991 15.7908 15.2426 15.5293C15.4942 15.2548 15.6954 14.928 15.8464 14.5489L17.9784 15.8234C17.7646 16.3463 17.4564 16.8104 17.0539 17.2156C16.664 17.6077 16.2174 17.9411 15.7143 18.2156C15.2237 18.4901 14.6954 18.6992 14.1294 18.843C13.5634 18.9868 13.0099 19.0587 12.469 19.0587C11.5131 19.0587 10.6389 18.8496 9.84641 18.4313C9.05397 18.013 8.36844 17.4705 7.78982 16.8038C7.22379 16.1241 6.77725 15.3594 6.45021 14.5097C6.13575 13.647 5.97852 12.7712 5.97852 11.8823Z" fill="white"/>
</svg>
